<svg xmlns="http://www.w3.org/2000/svg" xmlns:xlink="http://www.w3.org/1999/xlink" aria-hidden="true" focusable="false" width="140pt" height="180pt" style="-ms-transform: rotate(360deg); -webkit-transform: rotate(360deg); transform: rotate(360deg); background-color:#F0F2F5" preserveAspectRatio="xMidYMid meet" viewBox="-24 -22 65 58">

    <g fill="#0275D8"><path d="M16 8A8 8 0 1 1 0 8a8 8 0 0 1 16 0zM8.5 4.5a.5.5 0 0 0-1 0v3h-3a.5.5 0 0 0 0 1h3v3a.5.5 0 0 0 1 0v-3h3a.5.5 0 0 0 0-1h-3v-3z"/></g>
    
    <rect x="0" y="0" width="16" height="16" fill="rgba(0, 0, 0, 0)" />

</svg>